<?xml version="1.0" encoding="UTF-8"?>
<svg width="48px" height="48px" viewBox="0 0 48 48" version="1.1" xmlns="http://www.w3.org/2000/svg" xmlns:xlink="http://www.w3.org/1999/xlink">
    <!-- Generator: Sketch 49 (51002) - http://www.bohemiancoding.com/sketch -->
    <title>ic/smile_good</title>
    <desc>Created with Sketch.</desc>
    <defs></defs>
    <g id="ic/smile_good" stroke="none" stroke-width="1" fill="none" fill-rule="evenodd">
        <g id="Shape">
            <polygon points="0 0 48 0 48 48 0 48"></polygon>
            <path d="M23.98,4 C12.94,4 4,12.96 4,24 C4,35.04 12.94,44 23.98,44 C35.04,44 44,35.04 44,24 C44,12.96 35.04,4 23.98,4 Z M24,40 C15.16,40 8,32.84 8,24 C8,15.16 15.16,8 24,8 C32.84,8 40,15.16 40,24 C40,32.84 32.84,40 24,40 Z M31,22 C32.66,22 34,20.66 34,19 C34,17.34 32.66,16 31,16 C29.34,16 28,17.34 28,19 C28,20.66 29.34,22 31,22 Z M17,22 C18.66,22 20,20.66 20,19 C20,17.34 18.66,16 17,16 C15.34,16 14,17.34 14,19 C14,20.66 15.34,22 17,22 Z M24,35 C28.66,35 32.62,32.08 34.22,28 L13.78,28 C15.38,32.08 19.34,35 24,35 Z" fill="#000000" fill-rule="nonzero"></path>
        </g>
    </g>
</svg>