<?xml version="1.0" encoding="UTF-8"?>
<svg width="48px" height="48px" viewBox="0 0 48 48" version="1.1" xmlns="http://www.w3.org/2000/svg" xmlns:xlink="http://www.w3.org/1999/xlink">
    <!-- Generator: Sketch 49 (51002) - http://www.bohemiancoding.com/sketch -->
    <title>ic/smile_bad</title>
    <desc>Created with Sketch.</desc>
    <defs></defs>
    <g id="ic/smile_bad" stroke="none" stroke-width="1" fill="none" fill-rule="evenodd">
        <g id="Shape">
            <polygon points="0 0 48 0 48 48 0 48"></polygon>
            <path d="M23.9802857,4.28571429 C13.098,4.28571429 4.28571429,13.1177143 4.28571429,24 C4.28571429,34.8822857 13.098,43.7142857 23.9802857,43.7142857 C34.8822857,43.7142857 43.7142857,34.8822857 43.7142857,24 C43.7142857,13.1177143 34.8822857,4.28571429 23.9802857,4.28571429 Z M24,39.7714286 C15.2862857,39.7714286 8.22857143,32.7137143 8.22857143,24 C8.22857143,15.2862857 15.2862857,8.22857143 24,8.22857143 C32.7137143,8.22857143 39.7714286,15.2862857 39.7714286,24 C39.7714286,32.7137143 32.7137143,39.7714286 24,39.7714286 Z M30.9,22.0285714 C32.5362857,22.0285714 33.8571429,20.7077143 33.8571429,19.0714286 C33.8571429,17.4351429 32.5362857,16.1142857 30.9,16.1142857 C29.2637143,16.1142857 27.9428571,17.4351429 27.9428571,19.0714286 C27.9428571,20.7077143 29.2637143,22.0285714 30.9,22.0285714 Z M17.1,22.0285714 C18.7362857,22.0285714 20.0571429,20.7077143 20.0571429,19.0714286 C20.0571429,17.4351429 18.7362857,16.1142857 17.1,16.1142857 C15.4637143,16.1142857 14.1428571,17.4351429 14.1428571,19.0714286 C14.1428571,20.7077143 15.4637143,22.0285714 17.1,22.0285714 Z M24,27.9428571 C19.4065714,27.9428571 15.5031429,30.8211429 13.926,34.8428571 L34.074,34.8428571 C32.4968571,30.8211429 28.5934286,27.9428571 24,27.9428571 Z" fill="#000000" fill-rule="nonzero"></path>
        </g>
    </g>
</svg>