<?xml version="1.0" encoding="UTF-8"?>
<svg width="48px" height="48px" viewBox="0 0 48 48" version="1.1" xmlns="http://www.w3.org/2000/svg" xmlns:xlink="http://www.w3.org/1999/xlink">
    <!-- Generator: Sketch 49 (51002) - http://www.bohemiancoding.com/sketch -->
    <title>ic/smile_neutral</title>
    <desc>Created with Sketch.</desc>
    <defs></defs>
    <g id="ic/smile_neutral" stroke="none" stroke-width="1" fill="none" fill-rule="evenodd">
        <g>
            <polygon id="Shape" points="0 0 48 0 48 48 0 48"></polygon>
            <path d="M23.9802857,4.28571429 C34.8822857,4.28571429 43.7142857,13.1177143 43.7142857,24 C43.7142857,34.8822857 34.8822857,43.7142857 23.9802857,43.7142857 C13.098,43.7142857 4.28571429,34.8822857 4.28571429,24 C4.28571429,13.1177143 13.098,4.28571429 23.9802857,4.28571429 Z M24,39.7714286 C32.7137143,39.7714286 39.7714286,32.7137143 39.7714286,24 C39.7714286,15.2862857 32.7137143,8.22857143 24,8.22857143 C15.2862857,8.22857143 8.22857143,15.2862857 8.22857143,24 C8.22857143,32.7137143 15.2862857,39.7714286 24,39.7714286 Z M18,27.4285714 L30,27.4285714 L30,31.7142857 L18,31.7142857 L18,27.4285714 Z M30.4285714,22.2857143 C28.7717172,22.2857143 27.4285714,20.9425685 27.4285714,19.2857143 C27.4285714,17.62886 28.7717172,16.2857143 30.4285714,16.2857143 C32.0854257,16.2857143 33.4285714,17.62886 33.4285714,19.2857143 C33.4285714,20.9425685 32.0854257,22.2857143 30.4285714,22.2857143 Z M16.7142857,22.2857143 C15.0574315,22.2857143 13.7142857,20.9425685 13.7142857,19.2857143 C13.7142857,17.62886 15.0574315,16.2857143 16.7142857,16.2857143 C18.37114,16.2857143 19.7142857,17.62886 19.7142857,19.2857143 C19.7142857,20.9425685 18.37114,22.2857143 16.7142857,22.2857143 Z" id="Combined-Shape" fill="#000000" fill-rule="nonzero"></path>
        </g>
    </g>
</svg>