<?xml version="1.0" encoding="UTF-8"?>
<svg width="68px" height="26px" viewBox="0 0 68 26" version="1.1" xmlns="http://www.w3.org/2000/svg" xmlns:xlink="http://www.w3.org/1999/xlink">
    <!-- Generator: Sketch 50.2 (55047) - http://www.bohemiancoding.com/sketch -->
    <title>logo</title>
    <desc>Created with Sketch.</desc>
    <defs>
        <polygon id="path-1" points="9.63125539 12.8609138 9.63125539 0.0288026187 0.0298368918 0.0288026187 0.0298368918 12.8609138 9.63125539 12.8609138"></polygon>
    </defs>
    <g id="Page-1" stroke="none" stroke-width="1" fill="none" fill-rule="evenodd">
        <g id="review_experience_step_1_mobile-copy-67" transform="translate(-154.000000, -14.000000)">
            <g id="topbar/mobile">
                <g id="logo" transform="translate(154.000000, 14.000000)">
                    <g>
                        <path d="M18.4772959,12.6192653 L18.4772959,6.20177694 L15.3852402,6.20177694 L15.3852402,12.6192653 C15.3852402,16.0393066 18.1592307,18.8124472 21.5730169,18.8124472 L21.5730169,15.7217493 C19.8669568,15.7217493 18.4772959,14.3282852 18.4772959,12.6192653" id="Fill-1" fill="#FFFFFF"></path>
                        <path d="M28.3462394,15.8516891 L28.3462394,15.8518373 C28.3454989,15.8518373 28.3447955,15.8517632 28.344055,15.8517632 C28.3433516,15.8517632 28.3426482,15.8518373 28.3419447,15.8518373 L28.3419447,15.8516891 C26.6209643,15.8493912 25.3069416,14.4531103 25.3069416,12.7300434 L25.3069416,12.48046 C25.3069416,11.6521722 25.5886871,10.8650616 26.1780944,10.2790558 C26.7609856,9.69375416 27.5177742,9.27149343 28.3449436,9.26497031 L28.3449436,9.26493325 C28.3450917,9.26493325 28.3452398,9.26497031 28.3453879,9.26497031 C28.3454989,9.26497031 28.34561,9.26493325 28.3457581,9.26493325 L28.3457581,9.26497031 C29.1728905,9.27149343 29.9271615,9.69375416 30.5100527,10.2790558 C31.099497,10.8650616 31.378725,11.6521722 31.378725,12.48046 L31.378725,12.7300434 C31.378725,14.4531103 30.0671457,15.8493912 28.3462394,15.8516891 L28.3462394,15.8516891 Z M31.3046788,6.19947532 L31.3046788,7.12972389 C30.4531482,6.57247909 29.4933622,6.12534897 28.3385386,6.12534897 L28.327913,6.12534897 L28.3084759,6.12534897 C26.6497313,6.12534897 25.1237884,6.84129828 23.9514529,8.00489658 C22.7744155,9.18765654 22.1599806,10.8133585 22.1599806,12.48046 L22.1599806,12.7300434 C22.1599806,16.179031 24.847004,18.9757439 28.2936296,18.9757439 C29.4062839,18.9757439 30.4531482,18.6592615 31.3046788,18.1152853 L31.3046788,25.472325 L34.3035475,25.472325 L34.3979933,25.472325 L34.3979933,16.2034186 L34.3979933,15.798837 L34.3979933,11.1825818 L34.3979933,9.31278181 L34.3979933,6.2006984 L31.3046788,6.19947532 Z" id="Fill-3" fill="#FFFFFF"></path>
                        <path d="M16.9673952,3.88727077 C18.0084468,3.88727077 18.8846718,3.0426752 18.8846718,1.9300017 C18.8846718,0.845866841 18.0084468,1.1118952e-05 16.9673952,1.1118952e-05 C15.8959845,1.1118952e-05 15.0008778,0.845866841 15.0008778,1.9300017 C15.0008778,3.0426752 15.8959845,3.88727077 16.9673952,3.88727077" id="Fill-5" fill="#FFFFFF"></path>
                        <g id="Group-9" transform="translate(57.422781, 6.125356)">
                            <mask id="mask-2" fill="white">
                                <use xlink:href="#path-1"></use>
                            </mask>
                            <g id="Clip-8"></g>
                            <path d="M6.64741441,5.4954826 L4.63458118,4.86303662 C3.9355486,4.62853793 3.37583384,4.25809152 3.40715535,3.76237159 C3.4657999,2.8323454 4.25091111,2.59202779 5.03072803,2.64121062 C5.50343858,2.67108354 6.04223531,2.85702947 6.35304398,3.24482145 L9.11748255,2.31664842 L9.23780752,2.25812567 C8.47942697,0.811957745 6.80280023,0.14563603 5.11873186,0.0393388513 C2.67698637,-0.114436251 0.49680887,1.43461904 0.372670517,3.40411896 C0.281704835,4.84943444 0.478112219,6.31628361 3.60571008,7.38040436 L5.26115961,7.91433642 C6.13346016,8.17859684 6.59150957,8.5255452 6.5230169,9.15421073 C6.47807089,9.86537888 5.73883126,10.3228496 4.84442794,10.2938292 C3.96427851,10.2747046 3.21474646,9.82976117 2.87543003,9.24657216 L0.0298368918,10.2020237 C0.76300474,11.7866226 2.55269993,12.7312146 4.36782996,12.8459622 C6.91094462,13.0065198 9.46635093,11.875463 9.62347684,9.38066671 C9.68512025,8.40271785 9.44243403,6.40920099 6.64741441,5.4954826" id="Fill-7" fill="#FFFFFF" mask="url(#mask-2)"></path>
                        </g>
                        <path d="M38.9244079,11.0347776 C38.9981949,9.84875605 39.9346564,8.6425351 41.6343115,8.6425351 C43.5067903,8.6425351 44.2952336,9.84875605 44.3445113,11.0347776 L38.9244079,11.0347776 Z M41.5851078,6.10229939 C38.4809086,6.10229939 35.6229127,8.62711682 35.6229127,12.499403 C35.6229127,16.5935863 38.5548436,18.9903505 41.8808481,18.9903505 C43.7010873,18.9903505 45.1252167,18.3380757 46.0989975,17.3527883 L44.0741318,15.3257664 C43.5969785,15.8243031 42.8972795,16.0835229 41.9053204,16.0835229 C40.2920771,16.0835229 38.9460664,15.1262553 38.8528053,13.2647575 L47.518425,13.2647575 C47.518425,13.2647575 47.5719233,12.7786369 47.5719233,12.3100843 C47.5719233,8.41333644 45.3299173,6.10229939 41.5851078,6.10229939 L41.5851078,6.10229939 Z" id="Fill-10" fill="#FFFFFF"></path>
                        <path d="M53.293661,12.6192653 L53.293661,8.86802744 L56.4035989,8.86802744 L56.4035989,6.19947903 L53.293661,6.19947903 L53.293661,1.7889615 L50.1837232,1.7889615 L50.1837232,6.19947903 L48.0734082,6.19947903 L48.0734082,8.86802744 L50.1837232,8.86802744 L50.1837232,12.6192653 C50.1837232,16.0393066 52.9604534,18.8124472 56.4035989,18.8124472 L56.4035989,15.7217493 C54.6635146,15.7217493 53.293661,14.3282852 53.293661,12.6192653" id="Fill-12" fill="#FFFFFF"></path>
                        <path d="M0,6.59796743 L3.08735378,6.59796743 C3.08735378,4.89013351 4.47927311,3.49893027 6.18648089,3.49893027 L6.90402501,3.49893027 L6.90402501,12.6192504 C6.90402501,16.0393288 9.67801553,18.8124324 13.0917647,18.8124324 L13.0917647,15.7217345 C11.3857787,15.7217345 9.99608072,14.3283074 9.99608072,12.6192504 L9.99608072,3.49893027 L13.7900568,3.49893027 L13.7900568,0.40352529 L6.18648089,0.40352529 C2.7701031,0.40352529 0,3.18052055 0,6.59796743" id="Fill-14" fill="#FFFFFF"></path>
                    </g>
                </g>
            </g>
        </g>
    </g>
</svg>